<?xml version="1.0" standalone="no"?>
<!DOCTYPE svg PUBLIC "-//W3C//DTD SVG 20010904//EN"
 "http://www.w3.org/TR/2001/REC-SVG-20010904/DTD/svg10.dtd">
<svg version="1.0" xmlns="http://www.w3.org/2000/svg"
 width="1024.000000pt" height="1024.000000pt" viewBox="0 0 1024.000000 1024.000000"
 preserveAspectRatio="xMidYMid meet">

<g transform="translate(0.000000,1024.000000) scale(0.100000,-0.100000)"
fill="#000000" stroke="none">
<path d="M4805 7309 c-645 -395 -911 -556 -1010 -614 -55 -32 -106 -65 -112
-73 -10 -12 -13 -158 -13 -652 0 -594 1 -638 18 -652 9 -8 94 -62 187 -120
174 -108 409 -255 548 -345 l78 -50 -163 -103 c-90 -57 -181 -114 -202 -126
l-39 -22 -31 23 c-137 105 -352 5 -373 -173 -26 -221 247 -361 405 -209 70 66
95 163 68 252 -9 28 -12 51 -8 53 5 1 97 61 207 133 109 71 203 128 209 126
23 -9 872 -540 889 -557 5 -4 -63 -51 -150 -105 -87 -54 -167 -104 -179 -112
-19 -12 -36 -3 -200 100 -98 62 -195 123 -215 135 l-35 21 -145 -88 c-79 -48
-252 -154 -384 -235 l-240 -147 -5 57 -5 57 -105 63 c-57 35 -108 60 -112 56
-5 -5 -7 -100 -6 -212 l3 -203 180 -110 c99 -60 320 -196 490 -300 670 -411
746 -457 754 -457 8 0 111 62 671 405 380 232 609 372 713 434 l87 52 -2 647
-3 647 -45 28 c-25 16 -236 148 -470 293 -234 146 -431 271 -438 278 -19 19
485 334 507 317 134 -98 313 -49 377 104 34 83 3 210 -67 269 -49 41 -90 56
-156 56 -167 -1 -286 -152 -239 -305 12 -39 13 -52 3 -61 -10 -10 -414 -268
-488 -312 -26 -15 -31 -12 -402 219 -207 129 -376 236 -376 239 -1 6 318 206
342 216 16 6 65 -23 346 -203 46 -30 90 -52 97 -49 8 3 181 109 384 236 204
126 373 230 375 230 2 0 5 -16 7 -36 3 -35 9 -40 112 -106 60 -38 111 -66 115
-63 10 10 12 202 4 304 l-8 95 -75 45 c-165 98 -546 331 -920 561 -217 134
-402 245 -410 247 -8 2 -163 -87 -345 -198z m908 -212 c298 -184 590 -362 650
-398 59 -35 107 -67 107 -71 0 -9 -114 -78 -129 -78 -6 0 -68 35 -138 79 -314
192 -885 547 -955 593 l-77 50 -3 79 c-2 43 -2 79 0 79 2 0 247 -150 545 -333z
m-603 271 l0 -53 -268 -164 c-147 -91 -426 -261 -620 -378 l-352 -213 -39 20
c-22 11 -42 24 -45 28 -3 5 90 67 207 137 178 108 976 596 1072 656 17 10 33
19 38 19 4 0 7 -24 7 -52z m0 -196 l0 -69 -92 -55 c-51 -30 -246 -149 -433
-265 -187 -115 -384 -235 -437 -267 l-97 -58 -56 32 c-30 17 -55 35 -55 38 0
4 150 97 332 207 182 110 442 269 577 353 135 83 249 152 253 152 5 0 8 -31 8
-68z m637 -329 c293 -180 532 -331 532 -334 1 -3 -32 -25 -73 -48 l-75 -43
-238 150 c-131 82 -332 209 -448 282 -115 73 -224 141 -241 152 -30 17 -31 22
-37 99 -4 45 -4 86 -1 91 3 5 15 3 27 -6 12 -8 261 -162 554 -343z m-637 123
c0 -76 19 -58 -210 -198 -85 -52 -269 -166 -408 -252 -140 -86 -259 -156 -265
-156 -7 0 -34 14 -61 31 -41 26 -46 33 -35 43 8 7 86 56 174 109 88 53 302
184 475 291 173 107 318 195 323 196 4 0 7 -29 7 -64z m545 -316 c231 -144
421 -264 423 -265 2 -2 -31 -24 -74 -51 l-77 -48 -41 24 c-43 24 -540 338
-658 416 -67 43 -68 45 -68 88 0 24 3 64 6 90 l7 46 31 -18 c17 -10 220 -137
451 -282z m-547 97 l-4 -61 -239 -146 c-132 -80 -291 -177 -353 -215 l-113
-69 -45 25 c-71 38 -72 43 -12 77 29 17 210 128 402 246 192 118 354 212 359
209 5 -3 7 -32 5 -66z m415 -277 c185 -117 337 -215 337 -219 0 -7 -134 -91
-147 -91 -5 0 -49 25 -99 56 -49 32 -168 106 -264 167 -96 60 -178 115 -182
121 -4 6 -8 51 -8 100 0 68 3 87 13 83 7 -3 165 -100 350 -217z m-413 83 c0
-32 -4 -63 -8 -69 -4 -6 -47 -36 -97 -66 -49 -30 -166 -101 -258 -158 l-168
-103 -37 17 c-20 9 -47 25 -60 34 -22 17 -19 19 290 209 172 106 319 193 326
193 8 0 12 -18 12 -57z m-1272 -556 l2 -516 -32 -24 c-18 -14 -43 -30 -55 -36
l-23 -12 0 582 0 581 53 -30 52 -29 3 -516z m2672 479 c0 -132 -1 -132 -66
-89 -51 34 -54 38 -54 77 0 40 3 43 53 73 28 17 55 32 60 32 4 1 7 -41 7 -93z
m-2533 -45 l43 -26 0 -405 0 -405 -60 -38 c-33 -20 -62 -37 -65 -37 -3 0 -5
216 -5 480 l0 481 23 -12 c12 -6 41 -23 64 -38z m1236 -29 c23 -16 131 -84
240 -152 108 -67 197 -126 197 -130 0 -5 -21 -20 -46 -35 l-45 -27 -67 41
c-37 23 -125 78 -197 124 l-130 83 -3 62 c-2 34 0 62 3 62 4 0 25 -13 48 -28z
m-103 -42 c0 -41 -4 -52 -22 -64 -13 -7 -99 -62 -193 -121 l-170 -107 -42 22
c-24 13 -43 26 -43 30 0 4 94 64 208 134 114 69 216 132 227 140 31 24 35 20
35 -34z m-965 -25 l55 -35 0 -292 0 -293 -33 -21 c-17 -11 -44 -29 -59 -38
l-28 -18 -2 366 c-2 201 1 366 5 366 4 0 32 -16 62 -35z m178 -105 l47 -30 0
-184 0 -185 -42 -29 c-24 -16 -49 -32 -55 -36 -10 -6 -13 46 -13 243 0 138 4
251 8 251 4 0 29 -13 55 -30z m2092 -56 c11 -12 15 -30 13 -63 -3 -41 -6 -46
-33 -54 -16 -5 -37 -13 -45 -17 -18 -9 -20 -36 -2 -32 15 3 16 -14 2 -23 -7
-4 1 -27 20 -61 29 -50 30 -54 12 -54 -11 0 -27 10 -35 23 -16 22 -16 22 -16
-10 -1 -26 -5 -33 -21 -33 -15 0 -20 7 -20 26 0 14 -4 23 -10 19 -5 -3 -10
-15 -10 -26 0 -18 -6 -20 -62 -17 l-63 3 -3 88 -3 87 66 0 c61 0 65 -1 65 -22
1 -20 2 -21 10 -6 15 24 1 48 -27 48 -46 0 -63 17 -63 65 0 66 15 75 120 75
68 0 92 -4 105 -16z m-1927 -38 l52 -29 0 -82 0 -82 -55 -37 -55 -36 0 112 c0
62 -3 130 -7 152 -3 22 -2 37 3 35 5 -2 33 -17 62 -33z m151 -93 l24 -16 -23
-19 c-32 -26 -40 -23 -40 17 0 39 5 42 39 18z m324 -199 c402 -253 457 -288
483 -309 l26 -21 -50 -31 -50 -31 -58 38 c-33 21 -158 101 -279 178 -121 76
-262 166 -313 200 l-93 60 43 31 c24 16 47 30 51 31 4 0 112 -66 240 -146z
m-268 -27 c61 -40 214 -139 341 -220 127 -81 242 -155 254 -165 l22 -18 -27
-18 c-27 -18 -29 -18 -73 4 -99 50 -209 32 -292 -48 -78 -76 -96 -172 -56
-297 6 -17 -5 -27 -64 -63 l-71 -42 -172 108 c-374 235 -627 397 -627 403 0 4
29 26 65 49 l64 42 158 -100 c87 -55 250 -159 362 -231 112 -72 207 -131 211
-131 3 0 4 15 2 33 -3 30 -14 39 -100 94 -228 143 -567 364 -569 371 -2 4 23
23 54 44 l56 36 36 -22 c349 -221 491 -311 514 -328 16 -11 30 -18 31 -16 2 1
9 13 15 25 13 26 26 16 -334 243 -99 62 -186 119 -194 125 -11 11 -3 20 45 50
l59 38 40 -23 c22 -13 135 -85 252 -161 266 -173 247 -163 280 -146 l27 15
-160 103 c-87 58 -207 136 -266 174 -60 38 -108 72 -108 75 0 7 93 69 105 69
6 1 60 -32 120 -72z m1294 -616 c218 -136 422 -263 454 -282 31 -18 57 -36 57
-39 0 -8 -104 -70 -117 -70 -26 0 -936 587 -931 601 2 5 23 22 48 38 42 27 47
28 69 14 13 -9 202 -127 420 -262z m-2097 208 c22 -12 495 -312 671 -426 l109
-70 -53 -33 c-44 -27 -58 -31 -79 -23 -22 8 -168 98 -640 395 -74 47 -135 90
-135 96 0 11 81 70 98 71 5 1 18 -4 29 -10z m1770 -215 c150 -97 362 -233 470
-302 l197 -125 -68 -44 -69 -44 -69 42 c-82 50 -368 233 -552 353 -134 88
-150 93 -151 46 0 -14 231 -169 588 -395 67 -42 122 -80 122 -85 0 -8 -97 -70
-111 -70 -11 0 -105 59 -427 268 l-224 145 -21 -23 c-12 -12 -17 -24 -12 -26
6 -3 105 -66 221 -142 116 -75 254 -164 307 -197 53 -33 96 -63 97 -67 0 -3
-15 -15 -33 -26 -19 -11 -45 -27 -59 -36 -24 -16 -27 -15 -209 102 -101 65
-247 160 -323 210 -77 51 -144 92 -151 92 -14 0 -52 -27 -45 -32 12 -10 578
-377 613 -397 20 -13 37 -24 37 -25 0 -2 -25 -20 -56 -40 l-55 -37 -37 23
c-42 25 -797 514 -825 533 -17 12 -13 16 40 48 l59 36 62 -31 c76 -38 145 -40
221 -7 129 55 189 211 128 332 l-24 46 36 25 c20 14 39 25 43 25 4 1 130 -78
280 -175z m-477 137 c-5 -18 0 -20 42 -23 l48 -3 0 -125 0 -125 -62 -3 c-47
-2 -63 -7 -63 -17 0 -8 7 -15 15 -15 8 0 15 -7 15 -15 0 -12 -16 -15 -85 -15
-69 0 -85 3 -85 15 0 8 7 15 15 15 8 0 15 7 15 15 0 12 -13 15 -60 15 l-60 0
0 130 0 130 51 0 c40 0 50 3 46 14 -9 23 2 26 90 26 79 0 84 -1 78 -19z m4
-747 c237 -152 431 -279 431 -283 0 -3 -22 -20 -49 -38 l-49 -32 -138 89 c-77
48 -278 176 -447 283 l-309 195 54 35 c29 20 58 34 65 32 6 -2 206 -128 442
-281z m1327 -911 c-2 -2 -25 9 -52 25 l-49 28 -3 512 -2 511 52 36 53 35 3
-571 c1 -315 0 -574 -2 -576z m-156 550 c0 -255 -3 -463 -6 -463 -3 0 -32 15
-65 33 l-59 32 0 405 0 405 57 37 c41 27 60 34 65 25 4 -7 8 -220 8 -474z
m-194 -351 c-3 -2 -29 9 -58 25 l-53 30 -2 294 -3 294 58 37 57 37 3 -356 c1
-196 0 -358 -2 -361z m-2095 647 c33 -31 31 -66 -4 -104 -23 -24 -30 -27 -38
-15 -8 13 -10 13 -18 1 -7 -12 -15 -8 -41 18 -25 25 -30 34 -21 45 8 9 8 16 2
20 -13 9 -2 36 14 36 7 0 15 6 18 14 8 21 59 13 88 -15z m-141 -19 c0 -6 -30
-10 -70 -10 l-70 0 0 -80 0 -80 139 0 140 0 4 33 c2 17 4 5 3 -28 l-1 -60 -48
-3 c-50 -3 -62 -24 -19 -30 12 -2 22 -10 22 -18 0 -12 -18 -14 -102 -12 -62 2
-102 7 -101 13 1 6 10 12 20 14 41 8 32 26 -15 31 l-47 5 -3 104 c-2 67 1 108
9 117 13 16 139 20 139 4z m-74 -68 c-11 -10 -15 4 -8 28 l7 25 3 -23 c2 -13
1 -26 -2 -30z m-29 23 c0 -8 -4 -15 -9 -15 -10 0 -11 14 -1 23 9 10 10 9 10
-8z m68 6 c3 -5 1 -12 -5 -16 -5 -3 -10 1 -10 9 0 18 6 21 15 7z m2091 -488
c-2 -2 -25 9 -52 25 l-49 28 -3 187 -2 186 52 36 53 35 3 -246 c1 -136 1 -249
-2 -251z m-2068 440 c-15 -2 -42 -2 -60 0 -18 2 -6 4 27 4 33 0 48 -2 33 -4z
m10 -20 c-15 -2 -42 -2 -60 0 -18 2 -6 4 27 4 33 0 48 -2 33 -4z m10 -30 c-21
-2 -55 -2 -75 0 -21 2 -4 4 37 4 41 0 58 -2 38 -4z m1882 -153 l0 -149 -57 33
-58 34 0 78 0 78 54 38 c30 21 56 38 58 38 2 0 3 -67 3 -150z m-1857 133 c-23
-2 -64 -2 -90 0 -26 2 -7 3 42 3 50 0 71 -1 48 -3z m1687 -138 c0 -39 -2 -40
-33 -24 -32 17 -32 17 -6 38 33 28 39 26 39 -14z m-829 -120 c74 -47 162 -102
197 -123 l62 -36 0 -64 c0 -48 -3 -61 -12 -56 -57 32 -478 300 -478 304 1 5
81 58 91 59 3 1 66 -37 140 -84z m750 53 c45 -25 47 -32 17 -52 -96 -60 -438
-266 -443 -266 -3 0 -5 22 -5 49 l0 49 148 91 c81 50 167 104 192 120 25 16
47 30 49 30 2 1 21 -9 42 -21z m-779 -227 c139 -88 261 -165 271 -173 15 -11
18 -26 15 -105 l-3 -92 -347 217 c-192 119 -348 219 -348 222 0 8 134 89 147
90 6 0 125 -72 265 -159z m952 128 l48 -31 -33 -22 c-80 -54 -600 -366 -609
-366 -11 0 -2 120 10 133 17 18 506 315 520 316 8 0 37 -13 64 -30z m167 -96
c27 -14 49 -29 49 -32 0 -7 -117 -80 -580 -363 -248 -152 -247 -152 -234 -52
5 45 11 57 33 68 14 8 170 102 346 210 176 108 324 196 329 196 4 0 30 -12 57
-27z m-1429 -99 c84 -53 248 -155 363 -226 116 -72 217 -138 225 -147 13 -13
15 -33 10 -102 l-5 -85 -365 227 c-201 125 -405 253 -454 285 l-89 57 69 43
c38 24 75 44 81 44 7 0 81 -43 165 -96z m-682 34 l50 -33 0 -57 0 -56 -50 -31
c-28 -17 -54 -31 -58 -31 -4 0 -8 54 -9 120 0 66 4 120 8 120 5 0 32 -15 59
-32z m2327 -75 c-8 -8 -866 -538 -969 -600 -5 -2 -8 27 -8 65 l0 70 73 45 c39
24 200 123 357 219 157 97 321 198 365 226 l80 50 57 -32 c44 -24 54 -34 45
-43z m-1630 -226 c213 -134 434 -272 491 -306 l102 -63 0 -84 c0 -53 -4 -84
-11 -84 -19 0 -1109 678 -1109 690 0 5 8 11 18 14 9 3 40 21 67 40 28 19 51
35 52 35 1 1 176 -108 390 -242z m1770 162 c49 -28 53 -32 36 -43 -10 -7 -151
-93 -313 -192 -162 -98 -416 -253 -565 -345 l-270 -167 -3 65 c-2 36 1 69 5
74 4 4 228 143 496 308 269 166 498 308 510 316 30 21 42 19 104 -16z m-2090
-215 c292 -182 468 -291 738 -457 l175 -108 0 -80 c0 -43 -2 -79 -4 -79 -3 0
-215 130 -473 288 -257 158 -552 339 -655 401 -104 63 -188 117 -188 120 0 7
121 80 132 81 5 0 128 -75 275 -166z m2253 126 c22 -11 40 -24 40 -28 0 -4
-24 -21 -53 -38 -99 -59 -1212 -740 -1240 -758 l-28 -19 3 58 3 58 300 185
c545 335 920 562 928 562 4 0 26 -9 47 -20z"/>
<path d="M6210 6121 c0 -59 4 -61 110 -61 58 0 81 4 91 16 10 13 10 17 -2 24
-12 8 -12 13 -1 30 7 11 10 25 7 30 -4 6 -51 10 -106 10 l-99 0 0 -49z m17
-23 c-2 -13 -4 -3 -4 22 0 25 2 35 4 23 2 -13 2 -33 0 -45z m33 58 c0 -3 -4
-8 -10 -11 -5 -3 -10 -1 -10 4 0 6 5 11 10 11 6 0 10 -2 10 -4z m130 -13 c0
-10 -4 -14 -8 -8 -4 6 -11 13 -16 18 -5 4 -2 7 7 7 10 0 17 -8 17 -17z m-61
-17 c9 -11 8 -15 -5 -20 -26 -10 -34 -7 -34 14 0 23 22 27 39 6z m-69 -47 c0
-5 -4 -9 -10 -9 -5 0 -10 7 -10 16 0 8 5 12 10 9 6 -3 10 -10 10 -16z m130 6
c0 -8 -7 -15 -15 -15 -26 0 -18 20 13 29 1 1 2 -6 2 -14z"/>
<path d="M6298 6043 c6 -2 18 -2 25 0 6 3 1 5 -13 5 -14 0 -19 -2 -12 -5z"/>
<path d="M6155 6011 c-10 -17 12 -21 25 -6 10 12 10 15 -3 15 -9 0 -18 -4 -22
-9z"/>
<path d="M6230 6010 c0 -5 5 -10 10 -10 6 0 10 -4 10 -10 0 -5 -22 -10 -50
-10 l-50 0 0 -40 0 -40 53 -2 52 -1 -50 -7 -50 -7 43 -1 c23 -1 42 -6 42 -12
0 -5 5 -10 10 -10 6 0 10 33 10 80 0 64 -3 80 -15 80 -8 0 -15 -4 -15 -10z
m-2 -47 c-10 -2 -28 -2 -40 0 -13 2 -5 4 17 4 22 1 32 -1 23 -4z m16 -28 c-4
-9 -19 -15 -38 -15 -22 0 -33 5 -33 15 0 11 11 15 38 15 30 0 37 -3 33 -15z"/>
<path d="M6298 5993 c6 -2 18 -2 25 0 6 3 1 5 -13 5 -14 0 -19 -2 -12 -5z"/>
<path d="M6307 5973 c-11 -10 -8 -83 3 -83 6 0 10 20 10 45 0 46 -2 50 -13 38z"/>
<path d="M6330 5954 c0 -7 9 -22 21 -35 16 -19 18 -20 10 -4 -17 34 -31 51
-31 39z"/>
<path d="M6276 5933 c-6 -14 -5 -15 5 -6 7 7 10 15 7 18 -3 3 -9 -2 -12 -12z"/>
<path d="M5077 5333 c18 -2 50 -2 70 0 21 2 7 4 -32 4 -38 0 -55 -2 -38 -4z"/>
<path d="M4930 5200 l0 -100 165 0 165 0 0 100 0 100 -165 0 -165 0 0 -100z
m40 0 c0 -62 -3 -80 -14 -80 -11 0 -14 18 -14 80 0 63 3 80 14 80 11 0 14 -18
14 -80z m280 0 c0 -61 -3 -80 -14 -80 -10 0 -14 19 -15 80 -1 66 1 80 14 80
12 0 15 -15 15 -80z m-172 37 c6 -7 10 -34 9 -60 -2 -47 -3 -48 -32 -45 -16 2
-29 8 -28 15 1 6 -4 17 -12 23 -18 15 -20 51 -3 68 16 16 53 15 66 -1z m110
-23 c2 -1 -1 -19 -8 -39 -8 -26 -16 -35 -27 -31 -8 3 -20 6 -26 6 -32 1 -39
16 -23 53 14 36 16 36 48 25 18 -6 35 -12 36 -14z"/>
<path d="M5017 5233 c-11 -10 -8 -41 4 -49 6 -3 15 -2 21 4 6 6 17 8 24 5 17
-6 18 19 2 35 -13 13 -41 16 -51 5z"/>
<path d="M5046 5165 c-9 -23 -8 -25 9 -25 17 0 19 9 6 28 -7 11 -10 10 -15 -3z"/>
<path d="M5115 5200 c-8 -26 6 -43 31 -38 13 2 19 12 19 28 0 34 -40 41 -50
10z"/>
<path d="M4930 5070 c0 -6 62 -10 165 -10 103 0 165 4 165 10 0 6 -62 10 -165
10 -103 0 -165 -4 -165 -10z"/>
<path d="M5057 5044 c-13 -14 5 -24 44 -24 28 0 39 4 37 13 -5 13 -69 22 -81
11z"/>
<path d="M4036 4532 c-3 -6 -13 -9 -21 -6 -19 8 -51 -27 -51 -56 0 -51 62 -74
99 -37 10 10 15 22 12 28 -4 5 -1 16 5 24 10 12 9 15 -2 15 -8 0 -19 10 -25
22 -6 14 -12 18 -17 10z m20 -47 c11 -43 -34 -73 -64 -43 -27 27 -6 68 35 68
16 0 24 -7 29 -25z"/>
<path d="M3993 4484 c-3 -8 2 -23 11 -32 15 -15 17 -15 32 0 21 21 11 48 -16
48 -11 0 -23 -7 -27 -16z"/>
<path d="M3793 4298 c3 -10 39 -13 137 -13 98 0 134 3 138 13 3 9 -29 12 -138
12 -109 0 -141 -3 -137 -12z"/>
<path d="M3886 4255 c-4 -12 4 -15 39 -15 33 0 45 4 45 15 0 11 -11 15 -39 15
-25 0 -41 -5 -45 -15z"/>
<path d="M3883 4223 c26 -2 68 -2 95 0 26 2 4 3 -48 3 -52 0 -74 -1 -47 -3z"/>
</g>
</svg>
